<svg width="211" height="28" viewBox="0 0 211 28" fill="none" xmlns="http://www.w3.org/2000/svg">
<g clip-path="url(#clip0_768_42)">
<path d="M30.3188 28H50.5612V22.7728H36.4363V16.3615H48.1473V11.1298H36.4363V5.22725H50.6463V0H30.3188V28ZM74.9327 17.6244L61.6721 0H52.5406L55.3844 3.5433V28.0877H61.4974V9.70024L75.1924 28H81.0502V0H74.9327V17.6244ZM21.1022 13.5944C23.7893 13.0901 26.0285 10.6431 26.0285 7.18747C26.0106 3.4556 23.2564 0 17.7434 0H0L2.75422 3.4556V28.0132H18.3615C23.8788 28.0132 26.7182 24.6409 26.7182 20.4222C26.6152 16.9535 24.1834 14.0022 21.1022 13.5944ZM8.87172 5.26233H16.5387C18.6078 5.26233 19.8975 6.44636 19.8975 8.21363C19.8975 9.98089 18.6078 11.1649 16.5387 11.1649H8.87172V5.26233ZM16.794 22.8034H8.87172V16.3615H16.794C19.1228 16.3615 20.4126 17.7955 20.4126 19.5671C20.4126 21.5887 19.0332 22.7728 16.794 22.7728V22.8034ZM170.542 17.6244H173.731V20.9178C172.081 22.2548 170.014 22.9978 167.873 23.0227C162.79 23.0227 159.176 19.2294 159.176 14.0855C159.176 8.94158 162.79 5.14393 167.873 5.14393C169.179 5.15452 170.462 5.48411 171.605 6.10284C172.749 6.72156 173.716 7.60986 174.42 8.68724L179.244 6.05607C177.179 2.86797 173.556 0 167.788 0C159.691 0 152.973 5.4816 152.973 14.0022C152.973 22.5228 159.606 28 167.788 28C169.998 28.0359 172.189 27.6021 174.211 26.7284C176.232 25.8547 178.037 24.562 179.499 22.9394V12.5682H166.409L170.542 17.6244ZM142.982 17.6244L129.717 0H120.586L123.429 3.5433V28.0877H129.547V9.70024L143.242 28H149.095V0H142.982V17.6244ZM199.737 0H187.941L190.78 3.5433L190.265 4.88959L181.134 28.0877H188.026L189.817 23.3604H202.155L203.947 28.0877H210.834L199.737 0ZM191.389 18.0498L195.867 5.98591L200.346 18.0498H191.389ZM110.939 0H117.057V28.0877H110.939V0ZM106.031 4.80627V0H84.494V5.22725H98.0188L84.494 23.1937V28H106.29V22.7728H92.4208L106.031 4.80627Z" fill="white"/>
</g>
<defs>
<clipPath id="clip0_768_42">
<rect width="211" height="28" fill="white"/>
</clipPath>
</defs>
</svg>
