<svg width="224" height="43" viewBox="0 0 224 43" fill="none" xmlns="http://www.w3.org/2000/svg">
<g clip-path="url(#clip0_745_3053)">
<path d="M38.2599 10.7852V32.2851L19.1641 43.0003V35.8336L31.8946 28.667L25.5294 25.1185L19.1641 28.667V21.5003L25.5294 17.9518L31.8946 14.3336L38.2599 10.7852Z" fill="#EFEFEF"/>
<path d="M38.2631 10.7848L31.8979 14.4029L19.1674 7.16667L6.36526 14.3333L0 10.7848L19.1674 0L38.2631 10.7848ZM19.1674 14.3333L12.802 17.9515L19.1674 21.5695L25.5326 17.9515L19.1674 14.3333Z" fill="white"/>
<path d="M19.1674 35.8335V43.0002L0 32.285L6.36526 28.6668L19.1674 35.8335ZM12.7305 17.9517V25.1183L19.0959 28.7365V21.5002L12.7305 17.9517Z" fill="#CECECE"/>
<path d="M61.6523 29.6407C60.1504 28.8753 58.9346 27.762 58.0763 26.3009C57.2181 24.9093 56.7891 23.3089 56.7891 21.4999C56.7891 19.6908 57.2181 18.0905 58.0763 16.699C58.9346 15.3074 60.1504 14.1941 61.6523 13.3591C63.1542 12.5937 64.8707 12.1763 66.8017 12.1763C68.3752 12.1763 69.8771 12.4546 71.1645 13.0112C72.4518 13.5678 73.5246 14.3332 74.4543 15.3769L71.7366 17.8123C70.5208 16.4206 68.9474 15.7247 67.0879 15.7247C65.9435 15.7247 64.9422 16.0031 64.0125 16.4901C63.0827 16.9772 62.439 17.6731 61.9385 18.508C61.4378 19.4126 61.1517 20.3867 61.1517 21.4999C61.1517 22.6132 61.4378 23.5873 61.9385 24.4919C62.439 25.3963 63.1542 26.0225 64.0125 26.5096C64.9422 26.9966 65.9435 27.275 67.0879 27.275C68.9474 27.275 70.5208 26.5792 71.7366 25.118L74.4543 27.5533C73.5961 28.5969 72.4518 29.3623 71.1645 29.919C69.8771 30.4756 68.3752 30.754 66.8017 30.754C64.9422 30.8235 63.2258 30.4061 61.6523 29.6407Z" fill="white"/>
<path d="M82.3202 16.9773C83.1784 16.6294 84.1081 16.4902 85.1809 16.4902V20.1779C84.7518 20.1779 84.3943 20.1084 84.2511 20.1084C83.0354 20.1084 82.1771 20.4563 81.4619 21.0825C80.8182 21.7087 80.4607 22.6828 80.4607 24.0048V30.5452H76.3125V16.6989H80.2461V18.5079C80.8182 17.8122 81.4619 17.3252 82.3202 16.9773Z" fill="white"/>
<path d="M101.558 16.6987L95.1208 31.3799C94.4773 32.9803 93.6905 34.0935 92.6891 34.7197C91.7594 35.346 90.5436 35.6938 89.1847 35.6938C88.4695 35.6938 87.6827 35.5547 86.9677 35.346C86.2524 35.1373 85.6802 34.7893 85.1797 34.4414L86.6815 31.5886C86.9677 31.867 87.3967 32.0757 87.7544 32.2148C88.1834 32.354 88.6126 32.4237 88.9702 32.4237C89.5424 32.4237 89.9714 32.2845 90.3291 32.0062C90.6866 31.7278 90.9727 31.3104 91.2588 30.6842L91.5449 30.6145L85.3942 16.6987H89.6139L93.6189 26.0919L97.624 16.6987H101.558Z" fill="white"/>
<path d="M114.648 17.3252C115.721 17.9514 116.579 18.7168 117.223 19.83C117.867 20.8737 118.153 22.1261 118.153 23.5872C118.153 25.0485 117.867 26.2313 117.223 27.3446C116.579 28.3883 115.792 29.2233 114.648 29.8495C113.575 30.406 112.359 30.7539 111.072 30.7539C109.284 30.7539 107.854 30.1973 106.781 29.0841V35.4853H102.633V16.6989H106.566V18.2992C107.568 17.1165 109.07 16.4902 111.001 16.4902C112.359 16.4902 113.504 16.7686 114.648 17.3252ZM112.932 26.3705C113.575 25.6746 113.933 24.7702 113.933 23.5872C113.933 22.4045 113.575 21.4999 112.932 20.8041C112.288 20.1084 111.358 19.7604 110.357 19.7604C109.284 19.7604 108.426 20.1084 107.782 20.8041C107.139 21.4999 106.781 22.4045 106.781 23.5872C106.781 24.7702 107.139 25.6746 107.782 26.3705C108.426 27.0662 109.356 27.4141 110.357 27.4141C111.358 27.4141 112.216 27.0662 112.932 26.3705Z" fill="white"/>
<path d="M129.379 29.8496C128.95 30.128 128.449 30.3367 127.877 30.4758C127.305 30.615 126.661 30.6847 126.017 30.6847C124.301 30.6847 123.014 30.2672 122.084 29.4322C121.154 28.5972 120.725 27.3449 120.725 25.7444V20.039H118.508V16.9774H120.725V13.6377H124.873V16.9774H128.377V20.039H124.873V25.6749C124.873 26.2316 125.016 26.7187 125.302 26.9969C125.588 27.3449 126.017 27.4839 126.589 27.4839C127.233 27.4839 127.805 27.3449 128.234 26.9969L129.379 29.8496Z" fill="white"/>
<path d="M133.314 29.7798C132.098 29.1536 131.168 28.3187 130.525 27.2751C129.881 26.1618 129.523 24.9789 129.523 23.5872C129.523 22.1958 129.881 21.0128 130.525 19.8996C131.168 18.7863 132.098 17.9514 133.314 17.3948C134.53 16.7686 135.817 16.4902 137.319 16.4902C138.821 16.4902 140.18 16.7686 141.324 17.3948C142.54 18.0209 143.398 18.856 144.113 19.8996C144.757 21.0128 145.114 22.1958 145.114 23.5872C145.114 24.9789 144.757 26.1618 144.113 27.2751C143.47 28.3883 142.54 29.2233 141.324 29.7798C140.18 30.406 138.821 30.6844 137.319 30.6844C135.817 30.6844 134.458 30.406 133.314 29.7798ZM139.894 26.3705C140.537 25.6747 140.895 24.7702 140.895 23.5872C140.895 22.4045 140.537 21.4999 139.894 20.8041C139.25 20.1084 138.32 19.7604 137.319 19.7604C136.246 19.7604 135.388 20.1084 134.673 20.8041C133.958 21.4999 133.672 22.4045 133.672 23.5872C133.672 24.7702 134.029 25.6747 134.673 26.3705C135.388 27.0662 136.246 27.4141 137.319 27.4141C138.392 27.4141 139.25 27.0662 139.894 26.3705Z" fill="white"/>
<path d="M169.434 12.5239V30.545H165.93L156.703 19.6211V30.545H152.484V12.5239H155.988L165.215 23.4479V12.5239H169.434Z" fill="white"/>
<path d="M186.735 24.7007H176.006C176.222 25.5356 176.651 26.2313 177.366 26.7184C178.081 27.2054 179.01 27.4838 180.084 27.4838C180.799 27.4838 181.514 27.3446 182.086 27.1359C182.659 26.9272 183.158 26.5792 183.66 26.0922L185.877 28.3884C184.518 29.8495 182.587 30.6149 180.012 30.6149C178.439 30.6149 177.008 30.3365 175.792 29.7103C174.576 29.0841 173.575 28.2492 172.932 27.2054C172.287 26.0922 171.93 24.9094 171.93 23.5177C171.93 22.1958 172.287 20.9433 172.932 19.8301C173.575 18.7168 174.504 17.8819 175.649 17.2557C176.793 16.6294 178.081 16.3511 179.511 16.3511C180.87 16.3511 182.158 16.6294 183.302 17.2557C184.446 17.8122 185.305 18.6473 185.948 19.7605C186.592 20.8738 186.877 22.1261 186.877 23.5177C186.807 23.7264 186.807 24.0744 186.735 24.7007ZM177.08 20.2476C176.436 20.7346 176.078 21.4304 175.936 22.335H182.944C182.801 21.4304 182.443 20.7346 181.8 20.2476C181.157 19.7605 180.37 19.4822 179.439 19.4822C178.51 19.4822 177.724 19.7605 177.08 20.2476Z" fill="white"/>
<path d="M211.488 16.6987L206.338 30.545H202.405L199.186 21.9867L195.896 30.545H191.963L186.742 16.6987H190.603L193.965 26.0223L197.47 16.6987H200.975L204.336 26.0223L207.768 16.6987H211.488Z" fill="white"/>
<path d="M213.842 30.2669C212.697 29.9887 211.84 29.6406 211.125 29.2232L212.483 26.3705C213.127 26.7879 213.914 27.0662 214.772 27.3446C215.701 27.6229 216.56 27.6925 217.419 27.6925C219.134 27.6925 220.065 27.2751 220.065 26.44C220.065 26.0226 219.85 25.7443 219.35 25.6051C218.849 25.4659 218.134 25.2572 217.131 25.1876C215.988 25.0485 214.986 24.8397 214.271 24.5615C213.484 24.3526 212.841 23.9353 212.268 23.3785C211.696 22.822 211.411 21.9869 211.411 20.9433C211.411 20.0387 211.696 19.2733 212.198 18.6471C212.697 18.0209 213.484 17.4643 214.486 17.0468C215.487 16.6989 216.632 16.4902 217.99 16.4902C218.991 16.4902 219.993 16.6294 220.994 16.8381C221.995 17.0468 222.782 17.3252 223.497 17.7427L222.138 20.5954C220.922 19.8996 219.492 19.5517 218.062 19.5517C217.203 19.5517 216.488 19.6909 216.059 19.8996C215.629 20.1084 215.415 20.4563 215.415 20.8041C215.415 21.2217 215.629 21.4999 216.131 21.7087C216.632 21.8477 217.347 22.0566 218.419 22.1958C219.564 22.4045 220.565 22.6131 221.28 22.822C221.995 23.0307 222.639 23.4482 223.211 24.0048C223.784 24.5615 223.998 25.3267 223.998 26.3705C223.998 27.2054 223.712 27.9708 223.211 28.6665C222.71 29.3624 221.924 29.8495 220.922 30.1973C219.921 30.5452 218.705 30.7539 217.347 30.7539C216.131 30.6844 214.986 30.5452 213.842 30.2669Z" fill="white"/>
</g>
<defs>
<clipPath id="clip0_745_3053">
<rect width="224" height="43" fill="white"/>
</clipPath>
</defs>
</svg>
