<svg width="222" height="24" viewBox="0 0 222 24" fill="none" xmlns="http://www.w3.org/2000/svg">
<path d="M118.193 8.09128V3.63414C118.193 3.42842 118.331 3.29128 118.538 3.22271L120.267 2.74271H120.336C120.544 2.74271 120.613 2.81128 120.613 3.08557V8.02271H125.523C125.731 8.02271 125.8 8.09128 125.8 8.22842V8.43414L125.454 9.66842C125.385 9.87414 125.247 9.94271 125.039 9.94271H120.682V18.9941C120.682 20.0227 120.821 20.777 121.097 21.1199C121.374 21.4627 121.858 21.6684 122.688 21.6684C123.379 21.6684 124.348 21.3941 125.593 20.8456L125.8 20.777C125.938 20.8456 126.007 20.9141 126.007 20.9827L126.422 22.2856V22.3541C126.422 22.4913 126.353 22.6284 126.146 22.7656C124.832 23.3827 123.518 23.7256 122.204 23.7256C120.751 23.7256 119.714 23.3827 119.161 22.697C118.538 22.0113 118.262 20.777 118.262 19.0627V10.0799H115.979C115.703 10.0799 115.564 9.94271 115.564 9.73699V8.50271C115.564 8.22842 115.703 8.15985 115.979 8.15985H118.193V8.09128ZM104.499 14.3999H111.553C111.553 12.8227 111.277 11.657 110.654 10.8341C110.032 10.0113 109.202 9.59985 108.095 9.59985C105.744 9.59985 104.499 11.177 104.499 14.3999ZM104.499 16.3884C104.499 18.1027 104.914 19.4741 105.675 20.3656C106.436 21.3256 107.473 21.8056 108.856 21.8056C109.478 21.8056 110.032 21.737 110.654 21.5313C111.277 21.3256 111.899 21.0513 112.591 20.6399L112.867 20.5713C113.006 20.6399 113.075 20.7084 113.075 20.7084L113.697 21.9427L113.766 22.1484C113.766 22.4227 113.213 22.7656 112.037 23.2456C110.931 23.7256 109.755 23.9313 108.579 23.9313C106.505 23.9313 104.845 23.177 103.669 21.737C102.424 20.297 101.871 18.3084 101.871 15.7713C101.871 13.3027 102.424 11.3141 103.6 9.80557C104.776 8.297 106.297 7.61128 108.303 7.61128C110.17 7.61128 111.622 8.22842 112.66 9.46271C113.697 10.697 114.25 12.4799 114.25 14.7427V15.7027C114.25 16.1141 114.112 16.3199 113.905 16.3199H104.499V16.3884ZM89.4916 14.3999H96.5458C96.5458 12.8227 96.2692 11.657 95.6467 10.8341C95.0243 10.0113 94.1944 9.59985 93.0879 9.59985C90.6673 9.59985 89.4916 11.177 89.4916 14.3999ZM89.4916 16.3884C89.4916 18.1027 89.9065 19.4741 90.6673 20.3656C91.428 21.3256 92.4654 21.8056 93.8486 21.8056C94.471 21.8056 95.0243 21.737 95.6467 21.5313C96.2692 21.3256 96.8916 21.0513 97.5832 20.6399L97.8598 20.5713C97.9981 20.6399 98.0673 20.7084 98.0673 20.7084L98.6897 21.9427L98.7589 22.1484C98.7589 22.4227 98.2056 22.7656 97.0299 23.2456C95.9234 23.7256 94.7477 23.9313 93.572 23.9313C91.4972 23.9313 89.8374 23.177 88.6617 21.737C87.4168 20.297 86.8635 18.3084 86.8635 15.7713C86.8635 13.3027 87.4168 11.3141 88.5925 9.80557C89.7682 8.297 91.2897 7.61128 93.2953 7.61128C95.1626 7.61128 96.6149 8.22842 97.6523 9.46271C98.6897 10.697 99.243 12.4799 99.243 14.7427V15.7027C99.243 16.1141 99.1047 16.3199 98.8972 16.3199H89.4916V16.3884ZM79.5327 10.3541L79.8785 9.94271C80.7084 9.05128 81.4 8.43414 81.8841 8.15985C82.3682 7.88557 82.9215 7.67985 83.5439 7.67985C84.028 7.67985 84.5121 7.74842 84.9271 7.95414C84.9963 7.95414 85.0654 8.02271 85.1346 8.09128V8.15985L85.0654 8.36557L84.2355 10.1484C84.2355 10.217 84.1664 10.217 84.0972 10.2856H84.028C83.6822 10.1484 83.3364 10.0799 83.0598 10.0799C82.6449 10.0799 82.2299 10.217 81.7458 10.5599C81.2617 10.9027 80.6393 11.5199 79.8785 12.4799V23.177C79.8785 23.4513 79.7402 23.5199 79.5327 23.5199H77.8037C77.5271 23.5199 77.4579 23.3827 77.4579 23.177V13.4399C77.4579 12.137 77.3888 11.2456 77.3196 10.7656C77.2505 10.2856 76.9738 9.737 76.628 9.11985L76.4897 8.777C76.5589 8.63985 76.628 8.50271 76.6972 8.50271L78.0112 7.61128H78.2878C78.5645 7.61128 78.8411 8.02271 79.1178 8.84557C79.2561 9.18842 79.3252 9.39414 79.3944 9.59985C79.4636 9.87414 79.4635 10.0799 79.5327 10.3541ZM66.4617 8.09128V3.63414C66.4617 3.42842 66.6 3.29128 66.8075 3.22271L68.5364 2.74271H68.6056C68.8131 2.74271 68.8822 2.81128 68.8822 3.08557V8.02271H73.7925C74 8.02271 74.0692 8.09128 74.0692 8.22842V8.43414L73.7234 9.66842C73.6542 9.87414 73.5159 9.94271 73.3084 9.94271H68.9514V18.9941C68.9514 20.0227 69.0897 20.777 69.3664 21.1199C69.643 21.4627 70.1271 21.6684 70.957 21.6684C71.6486 21.6684 72.6168 21.3941 73.8617 20.8456L74.0692 20.777C74.2075 20.8456 74.2766 20.9141 74.2766 20.9827L74.6916 22.2856V22.3541C74.6916 22.4913 74.6224 22.6284 74.4149 22.7656C73.1009 23.3827 71.7869 23.7256 70.4729 23.7256C69.0206 23.7256 67.9832 23.3827 67.4299 22.697C66.8075 22.0113 66.5308 20.777 66.5308 19.0627V10.0799H64.2486C63.972 10.0799 63.8336 9.94271 63.8336 9.73699V8.50271C63.8336 8.22842 63.972 8.15985 64.2486 8.15985H66.4617V8.09128ZM52.0766 22.3541L52.6991 20.9827C52.6991 20.9141 52.7682 20.8456 52.8374 20.8456C52.9065 20.8456 52.9065 20.8456 52.9757 20.8456L53.1832 20.9141C54.6355 21.6684 55.9495 22.0113 57.1252 22.0113C57.886 22.0113 58.5084 21.8056 58.9925 21.3941C59.4766 20.9827 59.6841 20.4341 59.6841 19.6799C59.6841 18.7199 58.9925 17.897 57.6093 17.2799C56.5028 16.7999 55.8804 16.5256 55.6729 16.3884C55.0505 16.0456 54.4972 15.7027 54.0131 15.2913C53.0449 14.4684 52.4916 13.5084 52.4916 12.2741C52.4916 10.9713 52.9757 9.87414 53.8748 9.05128C54.7738 8.22842 55.9495 7.81699 57.471 7.81699C58.785 7.81699 60.0991 8.15985 61.2748 8.777C61.5514 8.91414 61.6206 9.05128 61.6206 9.18842H61.5514L60.9981 10.3541C60.929 10.4913 60.7907 10.5599 60.7215 10.5599L60.514 10.4913C59.2692 9.94271 58.3009 9.66842 57.471 9.66842C55.8112 9.66842 54.9813 10.3541 54.9813 11.7941C54.9813 12.7541 55.6037 13.577 56.7794 14.1256L59.0617 15.2227C60.2374 15.7713 61.1364 16.3884 61.5514 17.0056C62.0355 17.6227 62.243 18.377 62.243 19.337C62.243 20.7084 61.7589 21.8056 60.7907 22.697C59.8224 23.5199 58.5776 23.9313 57.0561 23.9313C55.2579 23.9313 53.6673 23.5199 52.2841 22.697C52.1458 22.6284 52.0766 22.4913 52.0766 22.4227V22.3541ZM45.1607 17.6913V1.02842C45.1607 0.822709 45.2991 0.685566 45.5065 0.616995L47.1664 0.205566H47.3738C47.5121 0.205566 47.5813 0.342709 47.5813 0.548424V19.7484C47.5813 21.1199 48.0654 21.8056 48.9645 21.8056C49.3794 21.8056 49.8636 21.6684 50.4168 21.3941L50.6243 21.3256C50.7626 21.3256 50.8318 21.3941 50.8318 21.5313L51.2467 22.697L51.3159 22.9713C51.3159 23.2456 51.1776 23.3141 51.1776 23.3827C50.3477 23.7256 49.5178 23.9313 48.6187 23.9313C47.3047 23.9313 46.4056 23.5884 45.9215 22.9027C45.4374 22.217 45.1607 21.0513 45.1607 19.2684V17.6913ZM36.7234 17.6913V1.02842C36.7234 0.822709 36.8617 0.685566 37.0692 0.616995L38.729 0.205566H38.9364C39.0748 0.205566 39.1439 0.342709 39.1439 0.548424V19.7484C39.1439 21.1199 39.628 21.8056 40.5271 21.8056C40.9421 21.8056 41.4262 21.6684 41.9794 21.3941L42.1869 21.3256C42.3252 21.3256 42.3944 21.3941 42.3944 21.5313L42.8093 22.697L42.8785 22.9713C42.8093 23.1084 42.7402 23.177 42.671 23.2456C41.8411 23.5884 41.0112 23.7941 40.1121 23.7941C38.7981 23.7941 37.8991 23.4513 37.415 22.7656C36.9308 22.0799 36.6542 20.9141 36.6542 19.1313V17.6913H36.7234ZM28.8393 15.8399C24.7589 15.8399 22.7533 17.0056 22.7533 19.2684C22.7533 20.0227 22.9607 20.6399 23.3757 21.1199C23.7907 21.5999 24.3439 21.8056 25.0355 21.8056C26.1421 21.8056 27.3869 21.1884 28.7701 19.9541V15.8399H28.8393ZM28.8393 13.8513V12.8227C28.8393 11.7941 28.6318 11.0399 28.1477 10.5599C27.6636 10.1484 26.9028 9.94271 25.7963 9.94271C24.6897 9.94271 23.3757 10.2856 21.9234 10.9027L21.7159 10.9713C21.5776 10.9027 21.5084 10.8341 21.5084 10.8341L21.0243 9.53128L20.9551 9.32557C20.9551 9.18842 21.0243 9.11985 21.2318 8.98271C21.4393 8.84557 21.7159 8.70842 22.1308 8.57128C22.7533 8.297 23.3757 8.15985 24.0673 8.02271C24.7589 7.88557 25.4505 7.81699 26.1421 7.81699C29.5308 7.81699 31.2598 9.32557 31.2598 12.3427V18.377C31.2598 19.4741 31.329 20.297 31.3981 20.8456C31.5364 21.3941 31.7439 22.0113 32.0897 22.6284L32.1589 22.7656L32.0897 22.9713L30.6374 23.8627H30.4299C30.2916 23.8627 30.0841 23.657 29.8766 23.2456C29.6 22.8341 29.3925 22.3541 29.2542 21.8741C27.8019 23.2456 26.2804 23.8627 24.6206 23.8627C23.3065 23.8627 22.2692 23.4513 21.5084 22.697C20.7477 21.8741 20.3327 20.8456 20.3327 19.4741C20.2635 15.7027 23.0991 13.8513 28.8393 13.8513ZM4.91028 20.5713L5.0486 19.8856L5.18692 19.2684L5.32523 18.7199L8.36822 8.297C8.43738 8.09128 8.5757 8.02271 8.78318 8.02271H10.2355C10.3738 8.02271 10.443 8.09128 10.5121 8.297L13.1402 19.1313L13.2785 19.5427L13.3477 20.0913L13.4168 20.4341L13.486 19.9541L13.5551 19.5427L13.6243 19.1313L16.4598 7.95414C16.529 7.817 16.5981 7.74842 16.6673 7.74842H16.8748L18.3963 8.15985C18.6037 8.22842 18.7421 8.297 18.7421 8.43414V8.57128L14.4542 23.4513V23.5199C14.4542 23.5884 14.385 23.5884 14.3159 23.657C14.2467 23.657 14.2467 23.7256 14.1776 23.7256H12.6561C12.5178 23.7256 12.4486 23.5884 12.3794 23.3827L9.7514 13.7141L9.47477 12.3427L9.40561 11.8627L9.33645 11.177C9.26729 11.5199 9.26729 11.9313 9.19813 12.3427C9.12897 12.7541 8.99065 13.1656 8.85234 13.7141L5.80935 23.5199C5.74019 23.7256 5.67103 23.7941 5.53271 23.7941H4.01121C3.8729 23.7941 3.80374 23.657 3.73458 23.4513L0 8.63985V8.43414C0 8.36557 0.0691589 8.22842 0.276635 8.22842L1.93645 7.81699H2.14393C2.28224 7.81699 2.3514 7.88557 2.3514 8.02271L4.56449 18.7884L4.7028 19.337L4.84112 20.0227L4.91028 20.5713Z" fill="white"/>
<path d="M212.527 13.5086H217.645C217.645 12.1371 217.437 11.2457 217.091 10.6286C216.746 10.08 216.123 9.80571 215.293 9.80571C214.394 9.80571 213.772 10.08 213.357 10.6286C212.942 11.1771 212.665 12.1371 212.527 13.5086ZM212.527 16.4571C212.527 19.2 213.703 20.5029 216.123 20.5029C217.368 20.5029 218.613 20.16 219.858 19.5429C219.927 19.4743 219.996 19.4743 220.065 19.4743C220.134 19.4743 220.204 19.4743 220.273 19.4057C220.48 19.4057 220.549 19.4743 220.618 19.68L221.448 21.6L221.518 21.9429C221.518 22.1486 221.379 22.3543 221.103 22.4914C220.826 22.6286 220.342 22.9029 219.65 23.1086C218.336 23.5886 217.022 23.8629 215.639 23.8629C213.288 23.8629 211.49 23.1771 210.245 21.7371C209 20.2971 208.377 18.24 208.377 15.4971C208.377 12.8914 209 10.8343 210.314 9.25714C211.628 7.68 213.288 6.85714 215.432 6.85714C219.719 6.85714 221.863 9.80571 221.863 15.6343C221.863 15.9771 221.794 16.1829 221.725 16.32C221.656 16.4571 221.448 16.4571 221.103 16.4571H212.527ZM196.205 8.91429C197.035 8.22857 197.796 7.68 198.557 7.33714C199.318 6.99429 200.147 6.85714 201.047 6.85714C202.499 6.85714 203.536 7.26857 204.228 8.09143C204.919 8.91429 205.265 10.2171 205.265 11.9314V22.6971C205.265 22.9714 205.265 23.1086 205.196 23.1771C205.127 23.2457 204.989 23.2457 204.712 23.2457H201.738C201.461 23.2457 201.323 23.2457 201.254 23.1771C201.185 23.1086 201.185 22.9714 201.185 22.6971V12.8229C201.185 11.04 200.562 10.1486 199.318 10.1486C198.418 10.1486 197.519 10.56 196.482 11.4514V22.6971C196.482 22.9714 196.482 23.1086 196.413 23.1771C196.344 23.2457 196.205 23.2457 195.929 23.2457H192.955C192.678 23.2457 192.471 23.2457 192.471 23.1771C192.471 23.1086 192.402 22.9714 192.402 22.6971V12C192.402 10.6286 192.194 9.46286 191.71 8.50286L191.572 8.22857C191.572 8.09143 191.641 8.02286 191.848 7.95429L194.753 6.92571L194.891 6.78857H195.03C195.445 6.72 195.79 7.47429 196.205 8.91429ZM187.975 2.67429C187.975 3.42857 187.699 4.04571 187.215 4.52571C186.731 5.00571 186.108 5.28 185.347 5.28C184.656 5.28 184.033 5.00571 183.48 4.52571C182.996 4.04571 182.719 3.42857 182.719 2.67429C182.719 1.98857 182.996 1.37143 183.48 0.822857C183.964 0.342857 184.587 0.0685714 185.347 0.0685714C186.039 0.0685714 186.661 0.342857 187.215 0.822857C187.699 1.37143 187.975 1.98857 187.975 2.67429ZM183.342 10.4229H180.852C180.575 10.4229 180.368 10.4229 180.368 10.3543C180.368 10.2857 180.299 10.1486 180.299 9.87429V8.02286C180.299 7.81714 180.299 7.68 180.368 7.61143C180.368 7.54286 180.575 7.47429 180.852 7.47429H186.869C187.146 7.47429 187.353 7.47429 187.353 7.54286C187.353 7.61143 187.422 7.74857 187.422 8.02286V22.7657C187.422 22.9714 187.422 23.1086 187.353 23.1771C187.353 23.2457 187.146 23.3143 186.869 23.3143H183.964C183.688 23.3143 183.549 23.3143 183.48 23.2457C183.411 23.1771 183.411 23.04 183.411 22.7657V10.4229H183.342ZM176.772 0H177.187C177.394 0 177.533 0.205714 177.533 0.548571V18.4457C177.533 19.0629 177.602 19.5429 177.74 19.7486C177.878 19.9543 178.086 20.0914 178.432 20.0914C178.777 20.0914 179.123 20.0229 179.469 19.8857H179.676C179.815 19.9543 179.884 20.0229 179.884 20.0914L180.575 22.6971V22.8343V22.9714C180.575 23.04 180.506 23.04 180.506 23.04C180.437 23.1771 180.368 23.2457 180.299 23.2457C179.4 23.6571 178.362 23.8629 177.325 23.8629C176.703 23.8629 176.149 23.7943 175.596 23.5886C175.043 23.3829 174.628 23.1086 174.282 22.6971C173.936 22.2857 173.66 21.8743 173.521 21.3257C173.383 20.7771 173.314 20.0229 173.314 18.9257V1.16571C173.314 0.822857 173.452 0.617143 173.798 0.548571L176.772 0ZM160.104 8.91429C160.934 8.22857 161.695 7.68 162.456 7.33714C163.217 6.99429 164.047 6.85714 164.946 6.85714C166.398 6.85714 167.435 7.26857 168.127 8.09143C168.818 8.91429 169.164 10.2171 169.164 11.9314V22.6971C169.164 22.9714 169.164 23.1086 169.095 23.1771C169.026 23.2457 168.888 23.2457 168.611 23.2457H165.637C165.361 23.2457 165.222 23.2457 165.153 23.1771C165.084 23.1086 165.084 22.9714 165.084 22.6971V12.8229C165.084 11.04 164.461 10.1486 163.217 10.1486C162.318 10.1486 161.418 10.56 160.381 11.4514V22.6971C160.381 22.9714 160.381 23.1086 160.312 23.1771C160.243 23.2457 160.104 23.2457 159.828 23.2457H156.854C156.577 23.2457 156.37 23.2457 156.37 23.1771C156.37 23.1086 156.301 22.9714 156.301 22.6971V12C156.301 10.6286 156.093 9.46286 155.609 8.50286L155.54 8.22857C155.54 8.09143 155.609 8.02286 155.817 7.95429L158.721 6.92571L158.86 6.78857H158.998C159.344 6.72 159.759 7.47429 160.104 8.91429ZM145.789 20.64C146.757 20.64 147.379 20.2286 147.794 19.4057C148.209 18.5829 148.417 17.2114 148.417 15.36C148.417 13.5086 148.209 12.1371 147.794 11.3143C147.379 10.4914 146.688 10.08 145.719 10.08C144.751 10.08 144.129 10.4914 143.714 11.3143C143.299 12.1371 143.091 13.5086 143.091 15.36C143.091 17.2114 143.299 18.5829 143.714 19.4057C144.129 20.2286 144.82 20.64 145.789 20.64ZM152.774 15.4286C152.774 18.0343 152.151 20.0914 150.906 21.6C149.661 23.1086 147.933 23.8629 145.789 23.8629C143.575 23.8629 141.847 23.1086 140.602 21.6C139.357 20.0914 138.734 18.0343 138.734 15.2914C138.734 12.6857 139.357 10.6286 140.671 9.12C141.916 7.61143 143.645 6.85714 145.858 6.85714C148.071 6.85714 149.8 7.61143 150.975 9.12C152.22 10.6286 152.774 12.6857 152.774 15.4286Z" fill="white"/>
<path d="M135.133 9.73736C135.133 10.5602 134.856 11.3145 134.234 11.8631C133.611 12.4802 132.92 12.7545 132.09 12.7545C131.26 12.7545 130.499 12.4802 129.946 11.8631C129.324 11.2459 129.047 10.5602 129.047 9.73736C129.047 8.9145 129.324 8.16022 129.946 7.61164C130.568 6.9945 131.26 6.72021 132.09 6.72021C132.92 6.72021 133.681 6.9945 134.234 7.61164C134.856 8.22879 135.133 8.9145 135.133 9.73736ZM135.133 20.3659C135.133 21.1888 134.856 21.9431 134.234 22.4916C133.611 23.1088 132.92 23.3831 132.09 23.3831C131.26 23.3831 130.499 23.1088 129.946 22.4916C129.324 21.8745 129.047 21.1888 129.047 20.3659C129.047 19.5431 129.324 18.7888 129.946 18.2402C130.568 17.6231 131.26 17.3488 132.09 17.3488C132.92 17.3488 133.681 17.6231 134.234 18.2402C134.856 18.7888 135.133 19.5431 135.133 20.3659Z" fill="#A21A17"/>
</svg>
