<svg width="222" height="33" viewBox="0 0 222 33" fill="none" xmlns="http://www.w3.org/2000/svg">
<path fill-rule="evenodd" clip-rule="evenodd" d="M42.3 13V26H45.5H48.7V21C48.7 17.7 48.7 15.9 48.7 15.7C48.8 15.2 48.9 14.7 49.2 14.3C49.6 13.6 50.3 13.3 51.1 13.4C52.2 13.5 52.9 14.1 53.1 15.4C53.1 15.6 53.1 17.6 53.1 20.8V25.9H56.3H59.5V19.9C59.5 14.8 59.5 13.8 59.4 13.3C59.2 11.5 58.6 10.1 57.5 9.1C56.6 8.2 55.5 7.7 54.2 7.5C53.7 7.4 52.3 7.5 51.9 7.6C50.7 7.9 49.8 8.3 49 9.2L48.5 9.6V4.8V0H45.3H42.1V13H42.3ZM110.3 0.200001C110.1 0.600001 103.6 16.3 103.6 16.3C103.6 16.3 105.3 16.3 107.4 16.3H111.2L114.6 8.2C116.5 3.7 118 0 118 0C118 0 116.3 0 114.2 0H110.4L110.3 0.200001ZM28.3 7.6C26.9 7.8 25.8 8.2 24.7 8.9C22.5 10.3 21.1 12.7 20.7 15.5C20.5 16.8 20.6 18.4 20.9 19.6C21.7 22.7 23.8 25.1 26.5 26C27.5 26.3 27.9 26.4 29.1 26.4C30 26.4 30.3 26.4 30.6 26.3C31.9 26 32.8 25.5 33.6 24.7L34 24.3V25.1V25.9H37.1H40.2V16.9V7.9H37.1H34V8.7V9.5L33.7 9.2C33 8.4 32 7.9 30.7 7.6C30.3 7.5 30.1 7.5 29.3 7.5C28.8 7.6 28.4 7.6 28.3 7.6ZM69.1 7.6C67.4 7.8 65.6 8.6 64.3 9.6C61.8 11.7 60.5 15 61 18.4C61.5 22.2 64.2 25.1 68 26.1C68.8 26.3 69.6 26.4 70.6 26.4C72.4 26.4 73.7 26.1 75.1 25.4C77.9 24 79.7 21.5 80.1 18.4C80.2 17.6 80.2 16.3 80.1 15.6C79.9 14.1 79.3 12.6 78.4 11.4C78 10.9 77.2 10 76.7 9.6C75.3 8.5 73.7 7.8 71.9 7.6C71.2 7.5 69.8 7.5 69.1 7.6ZM89.5 7.6C87.8 7.8 86.1 8.5 84.8 9.6C84.3 10 83.4 10.9 83.1 11.4C82.2 12.6 81.7 14.1 81.4 15.6C81.3 16.3 81.3 17.7 81.4 18.4C82 22.4 84.9 25.5 88.9 26.3C89.7 26.5 90.1 26.5 91 26.5C92.7 26.5 94.2 26.2 95.6 25.4C99.3 23.5 101.3 19.3 100.4 15C99.6 11 96.4 8.1 92.3 7.6C91.6 7.5 90.2 7.5 89.5 7.6ZM0 8C0 8 1.7 12.1 3.8 17.1C5.9 22.1 7.6 26.2 7.6 26.2C7.6 26.2 7 27.7 6.2 29.5C5.4 31.3 4.8 32.7 4.8 32.8C4.8 32.9 6.3 32.8 8.2 32.8H11.6L16.7 20.5C19.5 13.7 21.8 8.2 21.8 8.1C21.8 8.1 21.1 8 18.4 8.1H15L12.9 13.3C12 16.1 11.1 18.5 11.1 18.5C11.1 18.5 10.2 16.1 9 13.3L7 8.1H3.5C1.6 8 0 8 0 8ZM31.4 13.4C32.7 13.7 33.7 14.7 34.1 16C34.2 16.5 34.2 17.4 34.1 17.9C33.8 19.2 32.8 20.2 31.5 20.5C31 20.6 30.1 20.6 29.6 20.5C28.5 20.2 27.5 19.4 27.1 18.4C26.6 17.3 26.8 15.9 27.4 14.9C28.3 13.6 29.8 13.1 31.4 13.4ZM71.3 13.5C72.7 13.7 73.8 14.8 74.1 16.2C74.2 16.7 74.2 17.5 74.1 18C73.8 19.3 72.8 20.2 71.6 20.6C71.2 20.7 70.1 20.7 69.7 20.6C68.7 20.3 67.9 19.6 67.4 18.7C67.1 18.1 67.1 17.8 67.1 17.1C67.1 16.5 67.2 16.2 67.4 15.7C67.7 15.1 68.1 14.5 68.7 14.1C69.3 13.5 70.3 13.3 71.3 13.5ZM91.6 13.5C92.8 13.7 93.8 14.5 94.2 15.6C94.4 16.1 94.5 16.4 94.5 17C94.5 17.7 94.4 18 94.2 18.6C93.8 19.5 92.9 20.2 91.9 20.5C91.5 20.6 90.4 20.6 90 20.5C88.8 20.2 87.8 19.2 87.5 17.9C87.4 17.4 87.4 16.5 87.5 16C87.9 14.4 89.3 13.3 90.9 13.3C91.1 13.4 91.4 13.4 91.6 13.5ZM105.2 17.9C103.3 18.1 101.9 19.5 101.5 21.3C101.4 21.8 101.4 22.7 101.5 23.2C101.9 24.8 103.1 25.9 104.7 26.3C104.9 26.3 105.3 26.4 105.6 26.4C106.8 26.4 107.8 26 108.6 25.2C109.5 24.3 109.8 23.4 109.8 22.2C109.8 20.7 109.1 19.4 107.9 18.7C107.1 18 106 17.8 105.2 17.9Z" fill="#6001D2"/>
<path d="M131.624 7.76924C130.565 6.07693 131.473 3.76923 133.441 3.15385C133.744 3 133.895 3 134.501 3C135.106 3 135.258 3 135.712 3.30769C137.226 4.07692 137.983 5.92308 137.226 7.46154C136.923 8.07693 136.317 8.69231 135.712 9C135.258 9.15385 135.106 9.15385 134.349 9.15385C133.441 9.15385 133.441 9.15385 132.987 9C132.533 8.84616 131.927 8.23077 131.624 7.76924Z" fill="white"/>
<path d="M120.271 8.23077C121.028 5.46154 122.693 3.76923 125.266 3.30769C125.721 3.30769 126.326 3.15385 127.083 3.30769C128.143 3.30769 128.9 3.30769 129.505 3.61539L129.959 3.76923V6.23077V8.69231C129.959 8.69231 129.808 8.69231 129.505 8.53847C128.9 8.23077 127.991 8.23077 127.386 8.38462C126.477 8.53846 126.023 9.3077 125.872 10.3846V10.8462H127.84H129.808V13.1538V15.4615H127.84H125.872V21V26.5385H122.996H120.119V21V15.4615H119.06H118V13.1538V10.8462H119.06H120.119V9.76923C120.119 9.15385 120.119 8.69231 120.271 8.23077Z" fill="white"/>
<path d="M145.552 12.2308C146.157 11.4615 147.066 10.8462 148.277 10.5385C148.882 10.3846 150.396 10.3846 151.153 10.3846C152.061 10.5385 152.667 11 153.272 11.6154C154.029 12.2308 154.332 13 154.635 13.9231C154.937 15 154.937 15.6154 154.937 21.1539V26.3846H152.061H149.185V21.7692C149.185 16.8462 149.185 16.8462 148.731 16.2308C148.125 15.4615 146.763 15.3077 146.006 15.9231C145.703 16.2308 145.4 16.8462 145.249 17.4615V22.2308V26.5385H142.373H139.496V18.6923V10.8462H142.373H145.249V11.7692V12.6923L145.552 12.2308Z" fill="white"/>
<path d="M181.884 12.2308C182.489 11.4615 183.549 10.6923 184.608 10.5385C185.668 10.2308 186.879 10.3846 187.939 10.3846C188.544 10.6923 188.999 11 189.604 11.6154C190.058 12.0769 190.21 12.2308 190.512 12.8462C190.664 13.3077 190.815 13.9231 190.967 14.2308C191.118 14.8462 191.118 14.8462 191.118 20.5385V26.2308H188.242H185.365V21.6154C185.365 16.3846 185.365 16.5385 184.76 15.9231C184.306 15.6154 184.003 15.4615 183.397 15.4615C182.792 15.4615 182.186 15.7692 181.884 16.3846C181.581 17.1539 181.581 17.1539 181.581 21.9231V26.3846H178.705H175.828V18.5385V10.6923H178.705H181.581V11.6154V12.5385L181.884 12.2308Z" fill="white"/>
<path d="M193.843 14.3846C195.054 12.2308 197.022 11 199.595 10.5385C201.109 10.2308 202.926 10.3846 204.591 11L205.045 11.1539V13.7692V16.3846C203.531 15.6154 203.077 15.6154 202.017 15.6154C200.504 15.7692 199.444 16.3846 198.99 17.6154C198.838 18.0769 198.838 18.2308 198.838 18.8462C198.838 19.6154 198.838 19.6154 198.99 20.0769C199.293 20.6923 199.747 21.1538 200.352 21.4615C200.958 21.7692 201.412 21.7692 202.32 21.7692C203.229 21.7692 203.683 21.6154 204.44 21.1539L204.894 20.8462V23.4615V26.0769L204.288 26.3846C203.229 26.8462 202.623 27 201.109 27C200.049 27 199.595 27 199.141 26.8462C196.265 26.2308 194.146 24.2308 193.237 21.6154C192.783 20.5385 192.783 20.0769 192.783 18.6923C192.783 17.4615 192.783 17.3077 192.935 16.5385C193.237 15.7692 193.54 15 193.843 14.3846Z" fill="white"/>
<path d="M131.473 26.5385V18.6923V10.8462H134.349H137.226V18.6923V26.5385H134.349H131.473Z" fill="white"/>
<path fill-rule="evenodd" clip-rule="evenodd" d="M162.658 10.3846C161.75 10.5385 160.387 11 159.63 11.6154C157.965 12.8462 156.905 14.6923 156.451 17C156.3 17.9231 156.3 19.6154 156.451 20.5385C156.754 21.9231 157.208 23.3077 157.965 24.2308C159.025 25.6154 160.387 26.5385 162.052 26.8462C162.961 27 164.475 27 165.231 26.6923C166.14 26.3846 166.745 26.0769 167.502 25.4615L168.108 24.8462V25.6154V26.3846H170.984H173.86V18.5385V10.6923H170.984H168.108V11.4615V12.2308L167.654 12.0769C166.897 11.3077 165.837 10.6923 164.626 10.5385C164.172 10.3846 163.112 10.3846 162.658 10.3846ZM167.956 17.3077C167.654 16.5385 166.745 15.7692 165.988 15.6154C164.323 15.3077 162.809 15.9231 162.204 17.3077C161.901 17.7692 161.901 17.9231 161.901 18.5385C161.901 19 161.901 19.1539 162.052 19.6154C162.204 20.5385 163.112 21.3077 164.02 21.6154C164.626 21.7692 165.534 21.7692 166.14 21.6154C167.956 21 168.713 19 167.956 17.3077Z" fill="white"/>
<path fill-rule="evenodd" clip-rule="evenodd" d="M212.614 10.5385C208.224 11.3077 205.499 15.1539 205.802 19.6154C205.953 21.1539 206.408 22.5385 207.164 23.6154C208.224 25.3077 209.889 26.3846 212.009 26.8462C212.917 27 215.339 27 216.399 26.8462C217.913 26.5385 219.275 25.7692 220.335 24.6923C220.789 24.2308 221.546 23.1538 221.546 23.1538C221.546 23.1538 220.486 22.6923 219.124 22.2308L216.702 21.3077L216.399 21.6154C215.945 22.0769 215.642 22.2308 215.036 22.3846C213.371 22.8462 211.706 21.9231 211.403 20.3846V20.0769H216.702H222V18.6923C222 17.7692 222 17.1538 221.849 16.8462C221.546 15 220.789 13.7692 219.729 12.5385C218.67 11.4615 217.459 10.8462 215.793 10.5385C215.188 10.3846 213.371 10.3846 212.614 10.5385ZM215.683 15.2797C215.41 15.0864 215.24 14.9663 214.885 14.8462C213.371 14.5385 212.009 15.1538 211.555 16.2308C211.539 16.2615 211.525 16.2908 211.511 16.3185C211.244 16.8462 211.244 16.8462 213.977 16.8462H216.55V16.5385C216.55 16.0769 216.247 15.7692 215.945 15.4615C215.845 15.3941 215.76 15.334 215.683 15.2797Z" fill="white"/>
</svg>
