<svg width="140" height="140" viewBox="0 0 140 140" fill="none" xmlns="http://www.w3.org/2000/svg">
<circle cx="70" cy="70" r="69" fill="black" stroke="white" stroke-width="2"/>
<path d="M40.1499 53.08C41.1899 53.08 42.1259 53.136 42.9579 53.248C43.7899 53.36 44.6379 53.6 45.5019 53.968C46.3819 54.32 47.1099 54.8 47.6859 55.408C48.2619 56 48.7339 56.816 49.1019 57.856C49.4859 58.896 49.6779 60.12 49.6779 61.528C49.6779 62.936 49.4859 64.16 49.1019 65.2C48.7339 66.24 48.2619 67.064 47.6859 67.672C47.1099 68.264 46.3819 68.744 45.5019 69.112C44.6379 69.48 43.7899 69.72 42.9579 69.832C42.1259 69.944 41.1899 70 40.1499 70H33.5739V53.08H40.1499ZM40.1499 65.968C40.8859 65.968 41.4459 65.952 41.8299 65.92C42.2299 65.888 42.6699 65.8 43.1499 65.656C43.6299 65.496 43.9819 65.264 44.2059 64.96C44.4459 64.656 44.6459 64.224 44.8059 63.664C44.9819 63.088 45.0699 62.376 45.0699 61.528C45.0699 60.824 45.0219 60.224 44.9259 59.728C44.8299 59.216 44.6699 58.8 44.4459 58.48C44.2219 58.16 43.9899 57.904 43.7499 57.712C43.5259 57.52 43.1899 57.384 42.7419 57.304C42.2939 57.224 41.9019 57.176 41.5659 57.16C41.2299 57.128 40.7579 57.112 40.1499 57.112H38.1579V65.968H40.1499ZM51.5739 70V53.08H58.4859C63.7659 53.08 66.4059 54.656 66.4059 57.808C66.4059 58.496 66.2619 59.08 65.9739 59.56C65.7019 60.04 65.3099 60.416 64.7979 60.688C64.2859 60.944 63.7899 61.136 63.3099 61.264C62.8299 61.376 62.2779 61.464 61.6539 61.528V62.632H64.2939C65.0299 62.632 65.5979 62.84 65.9979 63.256C66.4139 63.672 66.6219 64.248 66.6219 64.984V70H62.0379V64.384H56.1579V70H51.5739ZM56.1579 60.352H58.4859C59.8139 60.352 60.6459 60.296 60.9819 60.184C61.5419 59.976 61.8219 59.496 61.8219 58.744C61.8219 58.472 61.7899 58.24 61.7259 58.048C61.6779 57.856 61.5739 57.704 61.4139 57.592C61.2699 57.48 61.1339 57.392 61.0059 57.328C60.8939 57.248 60.6859 57.2 60.3819 57.184C60.0939 57.152 59.8619 57.136 59.6859 57.136C59.5099 57.12 59.2139 57.112 58.7979 57.112C58.6539 57.112 58.5499 57.112 58.4859 57.112H56.1579V60.352ZM82.1165 70L80.8205 65.056H73.9565L72.6605 70H68.0045L72.6365 53.08H82.1165L86.7725 70H82.1165ZM75.0125 61.024H79.7405L77.9405 54.208H76.8125L75.0125 61.024ZM86.7714 61.528C86.7714 58.952 87.6034 56.864 89.2674 55.264C90.9314 53.648 93.0114 52.84 95.5074 52.84C97.6514 52.84 99.5234 53.432 101.123 54.616C102.723 55.8 103.651 57.304 103.907 59.128H99.3234C99.1314 58.312 98.7314 57.736 98.1234 57.4C97.5314 57.048 96.6594 56.872 95.5074 56.872C94.1474 56.872 93.1154 57.224 92.4114 57.928C91.7074 58.632 91.3554 59.832 91.3554 61.528C91.3554 63.24 91.6514 64.448 92.2434 65.152C92.8514 65.856 93.7714 66.208 95.0034 66.208C95.9634 66.208 96.7394 66 97.3314 65.584C97.9234 65.168 98.2274 64.576 98.2434 63.808H95.1234V60.4H104.171C104.891 60.4 105.451 60.608 105.851 61.024C106.251 61.424 106.451 61.992 106.451 62.728V70H101.843V64.36L102.731 61.528H101.603C101.587 64.2 101.019 66.32 99.8994 67.888C98.7794 69.456 97.0834 70.24 94.8114 70.24C92.2834 70.24 90.3074 69.456 88.8834 67.888C87.4754 66.304 86.7714 64.184 86.7714 61.528Z" fill="white"/>
<path d="M53.2929 93.2929C52.9024 93.6834 52.9024 94.3166 53.2929 94.7071L59.6569 101.071C60.0474 101.462 60.6805 101.462 61.0711 101.071C61.4616 100.681 61.4616 100.047 61.0711 99.6569L55.4142 94L61.0711 88.3431C61.4616 87.9526 61.4616 87.3195 61.0711 86.9289C60.6805 86.5384 60.0474 86.5384 59.6569 86.9289L53.2929 93.2929ZM86.7071 94.7071C87.0976 94.3166 87.0976 93.6834 86.7071 93.2929L80.3431 86.9289C79.9526 86.5384 79.3195 86.5384 78.9289 86.9289C78.5384 87.3195 78.5384 87.9526 78.9289 88.3431L84.5858 94L78.9289 99.6569C78.5384 100.047 78.5384 100.681 78.9289 101.071C79.3195 101.462 79.9526 101.462 80.3431 101.071L86.7071 94.7071ZM54 95H86V93H54V95Z" fill="white"/>
</svg>
