<svg width="235" height="108" viewBox="0 0 235 108" fill="none" xmlns="http://www.w3.org/2000/svg">
<path d="M168 73.7171V33H235V73.7171H184.803L182.038 76.9147H187.994L174.806 88L179.06 80.1124H173.317L174.806 73.7171H168Z" fill="white"/>
<path d="M176.847 35.8494H173.445V51.9734H176.847V35.8494Z" fill="black"/>
<path d="M178.479 38.66H183.405V51.9734H186.767V38.66H191.692V35.8494H178.479V38.66Z" fill="black"/>
<path d="M196.057 35.8494H193.543V37.5657C193.543 38.8962 193.071 39.8646 192.545 40.6992L194.022 41.5731C195.13 40.644 196.057 38.9907 196.057 37.5499V35.8494Z" fill="black"/>
<path d="M206.523 40.4866H209.783C209.735 37.6129 207.379 35.6289 203.797 35.6289C200.27 35.6289 197.685 37.5814 197.701 40.5102C197.693 42.8879 199.366 44.2499 202.084 44.9034L203.836 45.3443C205.588 45.7694 206.562 46.2733 206.57 47.3598C206.562 48.5407 205.446 49.3438 203.718 49.3438C201.951 49.3438 200.678 48.525 200.568 46.911H197.277C197.363 50.3988 199.853 52.2017 203.757 52.2017C207.685 52.2017 209.995 50.32 210.002 47.3676C209.995 44.6829 207.976 43.2579 205.179 42.6281L203.734 42.2816C202.336 41.9588 201.165 41.4392 201.189 40.2819C201.189 39.2426 202.108 38.479 203.773 38.479C205.399 38.479 206.397 39.219 206.523 40.4866Z" fill="black"/>
<path d="M219.125 36.8584H217.812V44.3003H219.125V36.8584Z" fill="black"/>
<path d="M221.822 44.4129C222.696 44.4129 223.218 44.0023 223.457 43.5335H223.5V44.3003H224.762V40.5648C224.762 39.0895 223.562 38.6462 222.5 38.6462C221.329 38.6462 220.43 39.1694 220.14 40.1869L221.365 40.3613C221.496 39.9798 221.865 39.6527 222.507 39.6527C223.116 39.6527 223.45 39.9652 223.45 40.5139V40.5357C223.45 40.9136 223.054 40.9318 222.072 41.0372C220.992 41.1535 219.958 41.4769 219.958 42.7341C219.958 43.8315 220.76 44.4129 221.822 44.4129ZM222.163 43.4463C221.615 43.4463 221.224 43.1956 221.224 42.7123C221.224 42.2072 221.662 41.9965 222.25 41.9129C222.594 41.8657 223.283 41.7785 223.453 41.6404V42.2981C223.453 42.9194 222.953 43.4463 222.163 43.4463Z" fill="black"/>
<path d="M225.885 44.3003H227.175V43.4209H227.251C227.458 43.8279 227.89 44.3984 228.847 44.3984C230.159 44.3984 231.142 43.3555 231.142 41.5168C231.142 39.6564 230.13 38.6462 228.843 38.6462C227.861 38.6462 227.451 39.2385 227.251 39.6418H227.197V36.8584H225.885V44.3003ZM227.172 41.5096C227.172 40.4267 227.636 39.7254 228.48 39.7254C229.354 39.7254 229.804 40.4703 229.804 41.5096C229.804 42.5561 229.347 43.3192 228.48 43.3192C227.643 43.3192 227.172 42.5924 227.172 41.5096Z" fill="black"/>
<path d="M174.942 70.3071L176.136 66.6304H181.941L183.135 70.3071H186.78L181.234 54.1831H176.851L171.297 70.3071H174.942ZM177 63.9693L178.979 57.8677H179.105L181.085 63.9693H177Z" fill="black"/>
<path d="M187.942 70.3071H198.24V67.4965H191.343V54.1831H187.942V70.3071Z" fill="black"/>
<path d="M203.12 54.1831H199.719V70.3071H203.12V54.1831Z" fill="black"/>
<path d="M208.051 54.1831H204.272L209.826 70.3071H214.209L219.755 54.1831H215.984L212.088 66.4336H211.939L208.051 54.1831Z" fill="black"/>
<path d="M220.917 70.3071H231.789V67.4965H224.319V63.6465H231.2V60.8358H224.319V56.9938H231.758V54.1831H220.917V70.3071Z" fill="black"/>
<path d="M138 49L122 65" stroke="white" stroke-width="3" stroke-linecap="square" stroke-linejoin="round"/>
<path d="M122 49L138 65" stroke="white" stroke-width="3" stroke-linecap="square" stroke-linejoin="round"/>
<path d="M32.4375 54.9404H38.7897C43.6082 54.9404 45.7751 55.7404 45.7751 59.0304C45.7751 62.4304 43.3411 62.1204 41.57 62.2904V63.3804C44.0733 63.5004 46.9921 63.4004 46.9921 67.1804C46.9921 71.1204 43.1828 71.6004 38.7699 71.6004H32.4375V54.9404ZM39.4229 60.9404C40.4717 60.9404 41.3127 61.1104 41.3127 59.9204C41.3127 58.8304 40.4717 58.9004 39.4229 58.9004H36.8998V60.9304H39.4229V60.9404ZM39.4031 67.6204C41.3919 67.6204 42.5396 67.8104 42.5396 66.2704C42.5396 64.6404 41.3919 64.9004 39.4031 64.9004H36.8998V67.6204H39.4031Z" fill="white"/>
<path d="M56.3221 54.7002C61.6948 54.7002 64.9896 58.4102 64.9896 63.2502C64.9896 68.1202 61.6948 71.8202 56.3221 71.8202C50.9198 71.8202 47.625 68.1102 47.625 63.2502C47.625 58.4102 50.9198 54.7002 56.3221 54.7002ZM56.3221 67.8602C59.1222 67.8602 60.5272 66.1802 60.5272 63.2502C60.5272 60.3402 59.1222 58.6702 56.3221 58.6702C53.522 58.6702 52.0873 60.3502 52.0873 63.2502C52.0873 66.1802 53.5121 67.8602 56.3221 67.8602Z" fill="white"/>
<path d="M82.5419 63.2499C82.5419 70.43 77.8223 71.59 73.261 71.59H66.8594V54.9399H73.261C77.8223 54.9399 82.5419 56.0899 82.5419 63.2499ZM78.0598 63.2499C78.0598 59.0199 76.1897 58.8999 73.2709 58.8999H71.3316V67.6199H73.2709C76.1897 67.6199 78.0598 67.4999 78.0598 63.2499Z" fill="white"/>
<path d="M98.2303 54.9399L92.0364 66.5599V71.59H87.5741V66.5599L81.4297 54.9399H86.1988L89.2561 61.3899V63.8499H90.3544V61.3899L93.4414 54.9399H98.2303Z" fill="white"/>
<path d="M52.4793 37.2396V52.2196H48.4622V40.6996L49.2142 38.2396H48.2445L46.6218 52.2196H38.8647L37.242 38.2396H36.2526L37.0342 40.6996V52.2096H33.0171V37.2396H40.9029L42.2485 51.2196H43.238L44.5836 37.2396H52.4793V37.2396ZM53.0729 36.6396H52.4793H44.5935H44.0592L44.0097 37.1796L42.763 50.1496L41.5163 37.1796L41.4669 36.6396H40.9326H33.0468H32.4531V37.2396V52.2196V52.8196H33.0468H37.0639H37.6576V52.2196V46.7196L38.3007 52.2897L38.3601 52.8196H38.8845H46.6416H47.166L47.2254 52.2897L47.8685 46.7196V52.2196V52.8196H48.4622H52.4793H53.0729V52.2196V37.2396V36.6396Z" fill="white"/>
<path d="M65.8144 37.2396V40.8096H58.7102V42.9296H64.7656V46.4996H58.7102V48.6496H65.8144V52.2196H54.703V37.2396H65.8144ZM66.4081 36.6396H65.8144H54.703H54.1094V37.2396V52.2196V52.8196H54.703H65.8243H66.4179V52.2196V48.6496V48.0496H65.8243H59.3039V47.0996H64.7656H65.3592V46.4996V42.9296V42.3296H64.7656H59.3039V41.4096H65.8144H66.4081V40.8096V37.2396V36.6396Z" fill="white"/>
<path d="M81.5385 37.2396V40.8096H76.809V52.2196H72.7919V40.8096H68.0624V37.2396H81.5385V37.2396ZM82.1322 36.6396H81.5385H68.0624H67.4688V37.2396V40.8096V41.4096H68.0624H72.1983V52.2196V52.8196H72.7919H76.809H77.4027V52.2196V41.4096H81.5385H82.1322V40.8096V37.2396V36.6396V36.6396Z" fill="white"/>
<path d="M93.2491 37.2396L97.3255 52.2196H93.2491L92.1112 47.8396H86.0955L84.9576 52.2196H80.8811L84.9378 37.2396H93.2491V37.2396ZM87.0255 44.2696H91.1614L89.5882 38.2396H88.5987L87.0255 44.2696ZM93.7042 36.6396H93.2491H84.9477H84.4926L84.3738 37.0796L80.3172 52.0596L80.1094 52.8196H80.891H84.9675H85.4226L85.5414 52.3696L86.5605 48.4396H91.6561L92.6752 52.3696L92.7939 52.8196H93.2491H97.3255H98.1072L97.8994 52.0596L93.8229 37.0796L93.7042 36.6396ZM89.0638 38.8396H89.133L90.3995 43.6696H87.7973L89.0638 38.8396Z" fill="white"/>
<path d="M13.2536 27.3481C6.01938 27.3481 0.164062 33.1917 0.164062 40.3892V66.8298C0.164062 74.0372 6.02938 79.8709 13.2536 79.8709C20.4878 79.8709 26.3432 74.0273 26.3432 66.8298V40.3892C26.3432 33.1818 20.4878 27.3481 13.2536 27.3481ZM22.766 56.8748C22.2464 56.9743 22.3863 55.5607 21.8967 55.1127C21.4071 54.6647 21.7568 56.0485 21.547 56.1182C21.3372 56.1879 20.8975 55.2421 20.9275 54.3561C20.9575 53.4602 21.3072 53.4104 20.9275 52.2059C20.9275 52.1959 19.4387 49.2293 19.059 46.9396C18.8192 45.5061 16.9307 41.7929 16.9207 41.773C16.6209 43.8835 16.3511 46.2229 16.7608 47.756C17.0506 48.8311 18.1497 49.6972 17.9599 53.5996C17.81 56.5662 16.8308 60.3391 16.7608 61.2749C16.6909 62.2107 17.0306 65.0478 16.0913 68.1638C15.8316 69.0299 15.5917 69.657 15.5618 70.4036C15.5118 71.648 16.0114 73.3503 16.0214 74.0173C16.0314 74.8535 15.1021 75.5803 14.3128 75.5803C13.6833 75.5803 13.6033 75.2916 13.5833 74.9929C13.5634 74.7042 13.5634 74.3359 13.6133 73.7585C13.6833 72.972 13.7732 73.211 13.953 70.4236C14.043 68.9701 13.983 67.2379 13.8931 65.2768C13.8431 64.2614 14.2029 62.0514 14.1829 61.7229C14.1329 60.4586 13.8431 58.4278 13.8431 53.9878C13.8431 53.8385 13.7132 53.729 13.5634 53.7588C13.4834 53.7787 13.3935 53.7788 13.3036 53.7688C13.1537 53.7489 13.0338 53.8783 13.0438 54.0177C13.1937 56.377 13.3735 59.3137 13.0238 61.7826C12.8839 62.7781 12.744 62.9175 12.6241 63.4152C12.2344 65.1175 11.0853 68.0244 10.7756 69.2887C10.6957 70.1946 10.6957 71.0109 10.6757 71.3195C10.6457 71.8173 10.8355 72.5639 10.7856 72.8625C10.7256 73.1512 10.6057 74.316 9.95624 74.3558C9.56655 74.3757 8.72722 73.8879 8.5074 73.43C8.28757 72.972 8.12771 72.7829 8.53738 71.7177C8.94705 70.6525 9.1269 69.5774 9.15688 69.3186C9.17686 69.1593 9.23681 68.9701 9.35672 68.7511C9.49661 68.0543 9.65648 66.6407 9.70644 65.2868C9.80636 62.7482 10.3759 62.5591 10.4758 61.6233C10.5757 60.6975 9.007 57.0838 8.98702 53.1814C8.97703 50.623 9.71643 48.8311 10.0062 47.756C10.4159 46.2129 10.1461 43.8835 9.84633 41.773C9.83634 41.7929 6.77878 43.7242 6.40907 45.1278C6.10931 46.2527 6.2492 48.4229 6.2492 48.4229C6.35912 49.6872 6.68885 49.5976 7.06855 50.414C7.43825 51.2203 7.38829 52.2656 7.16847 52.2755C6.94865 52.2855 6.74881 50.8818 6.46903 51.4791C6.18925 52.0764 6.85872 53.3308 6.33913 53.4403C6.16927 53.4701 6.01939 53.2312 5.83953 52.6837C4.76039 52.2755 5.14009 50.6728 5.0002 49.3388C4.68046 46.1333 4.22082 44.859 4.7504 43.5151C5.11011 42.6092 8.03777 39.7521 8.85712 38.9159C9.66647 38.0896 10.8355 37.9602 11.3351 37.8607C11.6249 37.8009 11.9047 37.6715 12.0546 37.3032C12.1345 37.0045 12.1545 36.6063 11.9047 36.2579C11.6949 36.238 11.525 36.1982 11.3951 36.1583C11.1653 36.0787 11.2052 35.7303 11.1053 35.4814C11.0054 35.2325 10.8156 34.1873 10.8755 33.9483C10.9355 33.7094 11.1553 33.5899 11.1453 33.3908C11.1353 33.1917 11.0554 32.8135 11.2052 32.3854C11.3551 31.9573 11.565 31.5392 12.1045 31.0614C12.6441 30.5835 13.983 30.3844 15.332 31.3202C16.6809 32.256 15.8116 34.1873 15.6817 34.5158C15.4618 35.1031 14.1629 35.7104 14.9323 37.562C15.0522 37.7412 15.2021 37.8208 15.4119 37.8607C15.9115 37.9602 17.9698 38.5077 18.5094 39.2942C19.2588 40.3892 19.7984 42.7386 20.1881 44.0427C21.1073 47.1587 21.3072 49.0501 22.4263 52.5742C22.826 53.8484 23.7652 55.2023 22.9259 55.9788C22.9758 56.5562 22.9359 56.8449 22.766 56.8748Z" fill="white"/>
</svg>
