<svg width="23" height="23" viewBox="0 0 23 23" fill="none" xmlns="http://www.w3.org/2000/svg">
<path fill-rule="evenodd" clip-rule="evenodd" d="M0 4C0 1.79086 1.79086 0 4 0H19C21.2091 0 23 1.79086 23 4V19C23 21.2091 21.2091 23 19 23H4C1.79086 23 0 21.2091 0 19V4ZM16.9405 10.6932C17.1102 11.8376 16.9147 13.0063 16.3819 14.0331C15.8491 15.06 15.0061 15.8927 13.9727 16.4128C12.9394 16.9329 11.7684 17.1139 10.6262 16.9301C9.48406 16.7464 8.42893 16.2071 7.61092 15.3891C6.7929 14.5711 6.25365 13.5159 6.06986 12.3738C5.88607 11.2316 6.0671 10.0606 6.58721 9.02726C7.10732 7.99392 7.94002 7.15089 8.96687 6.61808C9.99371 6.08527 11.1624 5.88981 12.3068 6.0595C13.474 6.23259 14.5547 6.77651 15.3891 7.61092C16.2235 8.44532 16.7674 9.52597 16.9405 10.6932ZM19.8314 5.19085C19.9767 4.91081 20.0301 4.59207 19.9838 4.27997C19.9366 3.96163 19.7882 3.66691 19.5607 3.43934C19.3331 3.21177 19.0384 3.06343 18.72 3.01623C18.4079 2.96995 18.0892 3.02325 17.8091 3.16857C17.5291 3.31388 17.302 3.5438 17.1601 3.82562C17.0183 4.10744 16.9689 4.42681 17.0191 4.7383C17.0692 5.0498 17.2162 5.33756 17.4393 5.56066C17.6624 5.78375 17.9502 5.93082 18.2617 5.98095C18.5732 6.03107 18.8926 5.9817 19.1744 5.83985C19.4562 5.698 19.6861 5.4709 19.8314 5.19085Z" fill="#00D1FF"/>
</svg>
