<svg width="15" height="15" viewBox="0 0 15 15" fill="none" xmlns="http://www.w3.org/2000/svg">
<path d="M14.961 7.48052C14.961 5.91829 14.4719 4.39526 13.5624 3.12513C12.6528 1.855 11.3684 0.901514 9.88936 0.398453C8.41034 -0.104608 6.81094 -0.131996 5.31557 0.320133C3.82019 0.772261 2.50389 1.68122 1.55136 2.91946C0.598832 4.1577 0.0578721 5.66309 0.00438559 7.22441C-0.0491009 8.78572 0.387571 10.3246 1.25313 11.6251C2.11869 12.9257 3.3697 13.9226 4.83062 14.476C6.29155 15.0294 7.88908 15.1115 9.39905 14.7108L8.86969 12.7158C7.77635 13.0059 6.61961 12.9465 5.56179 12.5458C4.50397 12.1451 3.59814 11.4232 2.97141 10.4815C2.34468 9.53986 2.02849 8.42559 2.06722 7.29507C2.10595 6.16456 2.49765 5.07454 3.18735 4.17796C3.87706 3.28138 4.83016 2.62322 5.91293 2.29585C6.99569 1.96847 8.15378 1.9883 9.2247 2.35256C10.2956 2.71681 11.2256 3.40721 11.8842 4.32688C12.5428 5.24655 12.897 6.34935 12.897 7.48052H14.961Z" fill="white"/>
</svg>
