<svg width="129" height="70" viewBox="0 0 129 70" fill="none" xmlns="http://www.w3.org/2000/svg">
<g clip-path="url(#clip0_785_2)">
<path d="M42.0234 36.2361H50.4675C56.8729 36.2361 59.7534 37.2879 59.7534 41.6137C59.7534 46.084 56.5178 45.6765 54.1634 45.9V47.3331C57.4911 47.4909 61.3712 47.3594 61.3712 52.3294C61.3712 57.5098 56.3073 58.1409 50.4412 58.1409H42.0234V36.2361ZM51.3093 44.125C52.7035 44.125 53.8215 44.3485 53.8215 42.7839C53.8215 41.3507 52.7035 41.4428 51.3093 41.4428H47.9553V44.1118H51.3093V44.125ZM51.283 52.9079C53.9267 52.9079 55.4524 53.1578 55.4524 51.1329C55.4524 48.9898 53.9267 49.3316 51.283 49.3316H47.9553V52.9079H51.283Z" fill="white"/>
<path d="M73.7722 35.9204C80.9142 35.9204 85.294 40.7984 85.294 47.1621C85.294 53.5652 80.9142 58.43 73.7722 58.43C66.5908 58.43 62.2109 53.5521 62.2109 47.1621C62.2109 40.7984 66.5908 35.9204 73.7722 35.9204ZM73.7722 53.2234C77.4945 53.2234 79.3621 51.0145 79.3621 47.1621C79.3621 43.336 77.4945 41.1402 73.7722 41.1402C70.05 41.1402 68.1428 43.3491 68.1428 47.1621C68.1428 51.0145 70.0368 53.2234 73.7722 53.2234Z" fill="white"/>
<path d="M108.628 47.1622C108.628 56.6026 102.354 58.1278 96.2911 58.1278H87.7812V36.2361H96.2911C102.354 36.2361 108.628 37.7481 108.628 47.1622ZM102.67 47.1622C102.67 41.6005 100.184 41.4427 96.3042 41.4427H93.7263V52.9079H96.3042C100.184 52.9079 102.67 52.7502 102.67 47.1622Z" fill="white"/>
<path d="M129.474 36.2361L121.24 51.5142V58.1278H115.308V51.5142L107.141 36.2361H113.48L117.544 44.7166V47.9511H119.004V44.7166L123.108 36.2361H129.474Z" fill="white"/>
<path d="M68.6603 12.9637V32.6596H63.3202V17.513L64.3198 14.2785H63.0309L60.8738 32.6596H50.5621L48.405 14.2785H47.0897L48.1288 17.513V32.6465H42.7888V12.9637H53.2715L55.0603 31.3448H56.3756L58.1644 12.9637H68.6603ZM69.4494 12.1748H68.6603H58.1775H57.4673L57.4015 12.8848L55.7442 29.938L54.087 12.8848L54.0212 12.1748H53.311H42.8282H42.0391V12.9637V32.6596V33.4485H42.8282H48.1683H48.9574V32.6596V25.4281L49.8123 32.7517L49.8913 33.4485H50.5884H60.9001H61.5972L61.6761 32.7517L62.5311 25.4281V32.6596V33.4485H63.3202H68.6603H69.4494V32.6596V12.9637V12.1748Z" fill="white"/>
<path d="M86.3878 12.9637V17.6576H76.9441V20.445H84.9936V25.1389H76.9441V27.9657H86.3878V32.6596H71.6173V12.9637H86.3878ZM87.177 12.1748H86.3878H71.6173H70.8281V12.9637V32.6596V33.4485H71.6173H86.401H87.1901V32.6596V27.9657V27.1768H86.401H77.7333V25.9278H84.9936H85.7828V25.1389V20.445V19.6561H84.9936H77.7333V18.4465H86.3878H87.177V17.6576V12.9637V12.1748Z" fill="white"/>
<path d="M107.289 12.9637V17.6576H101.002V32.6596H95.6621V17.6576H89.3751V12.9637H107.289ZM108.078 12.1748H107.289H89.3751H88.5859V12.9637V17.6576V18.4465H89.3751H94.873V32.6596V33.4485H95.6621H101.002H101.791V32.6596V18.4465H107.289H108.078V17.6576V12.9637V12.1748Z" fill="white"/>
<path d="M122.857 12.9637L128.276 32.6596H122.857L121.345 26.9007H113.348L111.835 32.6596H106.417L111.809 12.9637H122.857ZM114.584 22.2068H120.082L117.991 14.2785H116.676L114.584 22.2068ZM123.463 12.1748H122.857H111.822H111.217L111.059 12.7533L105.667 32.4492L105.391 33.4485H106.43H111.849H112.454L112.611 32.8568L113.966 27.6896H120.74L122.095 32.8568L122.252 33.4485H122.857H128.276H129.316L129.039 32.4492L123.62 12.7533L123.463 12.1748ZM117.294 15.0674H117.386L119.07 21.418H115.61L117.294 15.0674Z" fill="white"/>
<path d="M17.4411 0.459961C7.91845 0.459961 0.210938 8.17793 0.210938 17.684V52.6055C0.210938 62.1248 7.93161 69.8296 17.4411 69.8296C26.9637 69.8296 34.6712 62.1117 34.6712 52.6055V17.684C34.6712 8.16478 26.9637 0.459961 17.4411 0.459961ZM29.9625 39.4574C29.2785 39.5889 29.4627 37.7218 28.8182 37.1302C28.1737 36.5385 28.6341 38.3661 28.3578 38.4581C28.0816 38.5502 27.5029 37.3011 27.5424 36.1309C27.5818 34.9476 28.0422 34.8818 27.5424 33.2909C27.5424 33.2778 25.5826 29.3596 25.0828 26.3355C24.7671 24.4422 22.2813 19.5379 22.2681 19.5116C21.8735 22.299 21.5184 25.3889 22.0577 27.4137C22.4391 28.8337 23.8859 29.9776 23.636 35.1316C23.4387 39.0498 22.1497 44.0329 22.0577 45.2689C21.9656 46.5048 22.4128 50.252 21.1764 54.3674C20.8345 55.5113 20.5188 56.3396 20.4793 57.3257C20.4136 58.9692 21.0712 61.2176 21.0844 62.0985C21.0975 63.2029 19.8743 64.1628 18.8353 64.1628C18.0066 64.1628 17.9014 63.7815 17.8751 63.387C17.8488 63.0057 17.8488 62.5192 17.9146 61.7567C18.0066 60.7179 18.125 61.0335 18.3617 57.352C18.4801 55.4324 18.4012 53.1446 18.2828 50.5544C18.2171 49.2133 18.6906 46.2944 18.6643 45.8605C18.5985 44.1907 18.2171 41.5085 18.2171 35.6444C18.2171 35.4472 18.0461 35.3026 17.8488 35.342C17.7436 35.3683 17.6252 35.3683 17.5068 35.3552C17.3095 35.3289 17.1517 35.4998 17.1648 35.6839C17.3621 38.8 17.5989 42.6787 17.1385 45.9394C16.9544 47.2542 16.7703 47.4383 16.6124 48.0957C16.0995 50.3441 14.5869 54.1833 14.1792 55.8531C14.0739 57.0496 14.0739 58.1278 14.0476 58.5354C14.0082 59.1928 14.2581 60.1789 14.1923 60.5733C14.1134 60.9546 13.9556 62.4929 13.1006 62.5455C12.5877 62.5718 11.4829 61.9276 11.1935 61.3228C10.9041 60.7179 10.6937 60.4681 11.233 59.0613C11.7722 57.6544 12.009 56.2344 12.0484 55.8926C12.0747 55.6822 12.1536 55.4324 12.3115 55.1431C12.4956 54.2228 12.7061 52.3557 12.7718 50.5676C12.9033 47.2148 13.6531 46.965 13.7846 45.729C13.9161 44.5063 11.8511 39.7335 11.8248 34.5794C11.8117 31.2003 12.785 28.8337 13.1664 27.4137C13.7057 25.3757 13.3505 22.299 12.956 19.5116C12.9428 19.5379 8.91806 22.0887 8.43141 23.9426C8.03683 25.4283 8.22097 28.2946 8.22097 28.2946C8.36565 29.9644 8.79969 29.8461 9.2995 30.9242C9.78615 31.9892 9.72039 33.3698 9.43103 33.3829C9.14166 33.3961 8.87861 31.5422 8.51033 32.3311C8.14205 33.12 9.02329 34.7766 8.33935 34.9213C8.11575 34.9607 7.91846 34.6452 7.68171 33.922C6.26121 33.3829 6.76101 31.2661 6.57687 29.5042C6.15599 25.2705 5.55096 23.5876 6.24805 21.8126C6.72155 20.6161 10.5753 16.8426 11.6538 15.7381C12.7192 14.6468 14.2581 14.4759 14.9157 14.3444C15.2972 14.2655 15.6654 14.0946 15.8627 13.6081C15.9679 13.2137 15.9942 12.6877 15.6654 12.2276C15.3892 12.2013 15.1656 12.1487 14.9946 12.0961C14.6921 11.9909 14.7447 11.5307 14.6132 11.202C14.4817 10.8733 14.2318 9.49274 14.3107 9.17719C14.3896 8.86163 14.679 8.70385 14.6658 8.44089C14.6527 8.17793 14.5474 7.6783 14.7447 7.11293C14.942 6.54756 15.2182 5.99534 15.9285 5.36422C16.6387 4.73311 18.4012 4.47015 20.1768 5.70608C21.9525 6.942 20.8082 9.49274 20.6372 9.92663C20.3478 10.7024 18.638 11.5044 19.6507 13.95C19.8086 14.1866 20.0058 14.2918 20.2821 14.3444C20.9397 14.4759 23.6492 15.199 24.3594 16.2377C25.3459 17.684 26.0561 20.787 26.5691 22.5094C27.7791 26.6248 28.0422 29.1229 29.5153 33.7774C30.0414 35.4603 31.2778 37.2485 30.1729 38.2741C30.2387 39.0366 30.1861 39.4179 29.9625 39.4574Z" fill="white"/>
</g>
<defs>
<clipPath id="clip0_785_2">
<rect width="129" height="70" fill="white"/>
</clipPath>
</defs>
</svg>
