<svg width="89" height="14" viewBox="0 0 89 14" fill="none" xmlns="http://www.w3.org/2000/svg">
<path d="M9.82441 8.186C9.82441 9.11933 9.46508 9.84733 8.74641 10.37C8.02775 10.8833 6.92175 11.14 5.42841 11.14C3.67375 11.14 2.39041 10.804 1.57841 10.132C0.775747 9.46 0.374414 8.466 0.374414 7.15H3.04841C3.04841 7.75667 3.22108 8.18133 3.56641 8.424C3.92108 8.66667 4.57441 8.788 5.52641 8.788C6.16108 8.788 6.59041 8.746 6.81441 8.662C7.03841 8.578 7.15041 8.44733 7.15041 8.27C7.15041 8.074 6.99641 7.90133 6.68841 7.752C6.38975 7.60267 5.88575 7.402 5.17641 7.15C4.99908 7.094 4.86375 7.04733 4.77041 7.01C3.47308 6.562 2.60508 6.20267 2.16641 5.932C1.27041 5.38133 0.822414 4.63 0.822414 3.678C0.822414 2.80067 1.16775 2.13333 1.85841 1.676C2.54908 1.21867 3.54775 0.99 4.85441 0.99C6.34775 0.99 7.48175 1.312 8.25641 1.956C9.03108 2.59067 9.41841 3.44933 9.41841 4.532H6.74441C6.74441 4.06533 6.58108 3.75267 6.25441 3.594C5.93708 3.426 5.47041 3.342 4.85441 3.342C3.94908 3.342 3.49641 3.49133 3.49641 3.79C3.49641 3.93933 3.56641 4.06067 3.70641 4.154C3.85575 4.238 4.30375 4.41067 5.05041 4.672C5.13441 4.7 5.32108 4.76533 5.61041 4.868C5.89975 4.96133 6.10975 5.03133 6.24041 5.078C6.37108 5.12467 6.57641 5.204 6.85641 5.316C7.13641 5.41867 7.35108 5.50733 7.50041 5.582C7.65908 5.65667 7.85975 5.75933 8.10241 5.89C8.34508 6.01133 8.53175 6.128 8.66241 6.24C8.80241 6.34267 8.95641 6.47333 9.12441 6.632C9.29241 6.78133 9.41841 6.93533 9.50241 7.094C9.59575 7.24333 9.67041 7.41133 9.72641 7.598C9.79175 7.78467 9.82441 7.98067 9.82441 8.186ZM9.8184 1.13H12.4224L13.8084 10.342H14.4524L15.3624 1.13H21.0744L21.9844 10.342H22.6284L24.0144 1.13H26.6184L25.0924 11H19.5204L18.5404 1.788H17.8964L16.9164 11H11.3444L9.8184 1.13ZM34.647 3.482H32.393V8.648H34.647V11H27.465V8.648H29.719V3.482H27.465V1.13H34.647V3.482ZM39.5624 1.13C40.1224 1.13 40.603 1.15333 41.0044 1.2C41.4057 1.23733 41.8117 1.33067 42.2224 1.48C42.633 1.62 42.9644 1.816 43.2164 2.068C43.4777 2.32 43.6877 2.66533 43.8464 3.104C44.0051 3.54267 44.0844 4.07 44.0844 4.686C44.0844 5.302 44.0051 5.82933 43.8464 6.268C43.6877 6.70667 43.4777 7.052 43.2164 7.304C42.9644 7.556 42.633 7.75667 42.2224 7.906C41.8117 8.046 41.4057 8.13933 41.0044 8.186C40.603 8.22333 40.1224 8.242 39.5624 8.242H38.3864V11H35.7124V1.13H39.5624ZM39.7444 5.89C40.3977 5.89 40.8364 5.82467 41.0604 5.694C41.2937 5.554 41.4104 5.218 41.4104 4.686C41.4104 4.154 41.2937 3.82267 41.0604 3.692C40.8364 3.552 40.3977 3.482 39.7444 3.482H38.3864V5.89H39.7444ZM45.0776 11V1.13H52.4836V3.482H47.7516V4.882H51.7836V7.234H47.7516V8.648H52.4836V11H45.0776Z" fill="white"/>
<path d="M62.6464 6.64645C62.4512 6.84171 62.4512 7.15829 62.6464 7.35355L65.8284 10.5355C66.0237 10.7308 66.3403 10.7308 66.5355 10.5355C66.7308 10.3403 66.7308 10.0237 66.5355 9.82843L63.7071 7L66.5355 4.17157C66.7308 3.97631 66.7308 3.65973 66.5355 3.46447C66.3403 3.2692 66.0237 3.2692 65.8284 3.46447L62.6464 6.64645ZM88.3536 7.35356C88.5488 7.15829 88.5488 6.84171 88.3536 6.64645L85.1716 3.46447C84.9763 3.26921 84.6597 3.26921 84.4645 3.46447C84.2692 3.65973 84.2692 3.97631 84.4645 4.17157L87.2929 7L84.4645 9.82843C84.2692 10.0237 84.2692 10.3403 84.4645 10.5355C84.6597 10.7308 84.9763 10.7308 85.1716 10.5355L88.3536 7.35356ZM63 7.5L88 7.5L88 6.5L63 6.5L63 7.5Z" fill="white"/>
</svg>
