<svg width="30" height="23" viewBox="0 0 30 23" fill="none" xmlns="http://www.w3.org/2000/svg">
<path fill-rule="evenodd" clip-rule="evenodd" d="M29.0074 2.72402C27.9385 3.18436 26.7917 3.49688 25.5887 3.63625C26.8177 2.91829 27.7611 1.778 28.2025 0.422328C27.0514 1.08961 25.7791 1.57106 24.4246 1.8329C23.3383 0.705288 21.7934 0 20.0797 0C16.7951 0 14.1294 2.60154 14.1294 5.80701C14.1294 6.26313 14.1813 6.70657 14.2852 7.1289C9.3388 6.88818 4.95502 4.57382 2.02095 1.06004C1.51031 1.91737 1.21603 2.91407 1.21603 3.97833C1.21603 5.99284 2.26762 7.77084 3.86448 8.80977C2.89079 8.78021 1.97335 8.51836 1.16843 8.08336C1.16843 8.1087 1.16843 8.12982 1.16843 8.15516C1.16843 10.9679 3.21968 13.316 5.94169 13.8481C5.44403 13.9791 4.91607 14.0509 4.37513 14.0509C3.98998 14.0509 3.61781 14.0129 3.2543 13.9453C4.01162 16.2512 6.21 17.9321 8.81084 17.9785C6.77258 19.5369 4.21068 20.466 1.41943 20.466C0.939073 20.466 0.467373 20.4365 0 20.3858C2.63114 22.0329 5.75994 22.9958 9.12242 22.9958C20.0667 22.9958 26.0517 14.148 26.0517 6.47429C26.0517 6.2209 26.0474 5.97172 26.0344 5.72255C27.1985 4.90323 28.2068 3.8812 29.0031 2.71557L29.0074 2.72402Z" fill="#00D1FF"/>
</svg>
